# xmcd CD database file
#
# Track frame offsets:
#	150
#	33679
#	56544
#	81739
#	103676
#	123819
#	142285
#	173319
#	200742
#	219405
#
# Disc length: 3243 seconds
#
# Revision: 3
# Processed by: cddbd v1.5.2PL0 Copyright (c) Steve Scherf et al.
# Submitted via: CDex 1.79
#
DISCID=940ca90a
DTITLE=Paquito D' Rivera - Brazilian Dreams 2001
DYEAR=2001
DGENRE=Jazz
TTITLE0=Corcovado
TTITLE1=One For Tom
TTITLE2=Manha De Carnival - Gentle Rain
TTITLE3=Desafinado
TTITLE4=Modinha
TTITLE5=Meu Amigo
TTITLE6=A Ra
TTITLE7=Retrato Em Branco E Preto
TTITLE8=Red On Red
TTITLE9=Snow Samba
EXTD=YEAR: 2001
EXTT0=
EXTT1=
EXTT2=
EXTT3=
EXTT4=
EXTT5=
EXTT6=
EXTT7=
EXTT8=
EXTT9=
PLAYORDER=
